<svg xmlns="http://www.w3.org/2000/svg" viewBox="0 0 505.75 164.76"><g id="Camada_2" data-name="Camada 2"><g id="graphics"><path d="M154.82,21.49A11,11,0,1,0,141,14.35,11,11,0,0,0,154.82,21.49Z" style="fill:#d07017"/><path d="M178.21,15.39a5,5,0,1,0-6.33-3.28A5,5,0,0,0,178.21,15.39Z" style="fill:#d07017"/><path d="M171.54,106a385.09,385.09,0,0,1-68.26,40A57.37,57.37,0,0,0,171.54,106Z" style="fill:#d07017"/><path d="M229.26,23.36c-7.36-11.89-41.39-3.1-83.64,17.27A57.42,57.42,0,0,0,59,91.76c-40.21,28.36-65.3,54.63-57.63,67,10,16.09,70.07-1.5,132-38.57S239.22,39.45,229.26,23.36ZM69.9,123.68c-5.48,1.16-9.2.89-10.43-1.1s.28-5.64,4.05-10.18A57.47,57.47,0,0,0,69.9,123.68Zm103.55-40q-.3-2.67-.84-5.33c-24.11,20.25-66.89,44.62-93.86,55a57.72,57.72,0,0,0,5.25,4c-27.68,10.67-49.64,13.11-55,4.38S36.69,117,59.71,99.14a57.32,57.32,0,0,0,1.87,8c-14.85,12.33-23,22.37-20.35,26.6C50,147.87,151.9,92.16,180.63,61c6.88-7.46,10.36-12.94,8.55-15.86-2.53-4.1-14.6-1.91-31.64,4.87A57.47,57.47,0,0,0,152,45c24.94-10.31,44.14-13.59,49.22-5.37C206.52,48.16,194.82,65.2,173.45,83.68Zm-12-29.2c4.86-.8,8.14-.38,9.28,1.47s0,4.82-2.92,8.59A57.91,57.91,0,0,0,161.46,54.48Z" style="fill:#d07017"/><path d="M252.59,83.12A3.7,3.7,0,0,0,251.14,80a18.86,18.86,0,0,0-5.21-2.32,37,37,0,0,1-6-2.4q-6-3.24-6-8.72a8.48,8.48,0,0,1,1.6-5.08A10.5,10.5,0,0,1,240.19,58a17.5,17.5,0,0,1,6.75-1.25,15.77,15.77,0,0,1,6.71,1.36,10.67,10.67,0,0,1,4.58,3.85,10.13,10.13,0,0,1,1.63,5.65h-7.25a4.71,4.71,0,0,0-1.52-3.75,6.21,6.21,0,0,0-4.27-1.34,6.67,6.67,0,0,0-4.13,1.12,3.54,3.54,0,0,0-1.47,3,3.38,3.38,0,0,0,1.72,2.87A19.56,19.56,0,0,0,248,71.6q6.18,1.86,9,4.61a9.19,9.19,0,0,1,2.83,6.86,8.45,8.45,0,0,1-3.46,7.16q-3.45,2.59-9.29,2.6a17.94,17.94,0,0,1-7.39-1.49,11.66,11.66,0,0,1-5.08-4.07,10.39,10.39,0,0,1-1.75-6h7.27q0,5.8,7,5.81a6.75,6.75,0,0,0,4-1A3.4,3.4,0,0,0,252.59,83.12Z" style="fill:#302e53"/><path d="M287.81,79.52q0,6-2.74,9.67a8.78,8.78,0,0,1-7.4,3.64,8.1,8.1,0,0,1-6.39-2.76v12.32h-7V66.22h6.47l.24,2.56a8.2,8.2,0,0,1,6.62-3,8.85,8.85,0,0,1,7.51,3.57q2.67,3.57,2.67,9.85Zm-7-.5a10.31,10.31,0,0,0-1.29-5.63,4.23,4.23,0,0,0-3.76-2,4.57,4.57,0,0,0-4.51,2.51v10.7a4.64,4.64,0,0,0,4.56,2.58Q280.84,87.2,280.84,79Z" style="fill:#302e53"/><path d="M307.27,92.34a8,8,0,0,1-.7-2.34A8.45,8.45,0,0,1,300,92.83a9.23,9.23,0,0,1-6.36-2.23A7.13,7.13,0,0,1,291.1,85a7.37,7.37,0,0,1,3.08-6.37q3.07-2.22,8.89-2.25h3.21V74.89a4.3,4.3,0,0,0-.93-2.9,3.66,3.66,0,0,0-2.93-1.09,4.16,4.16,0,0,0-2.76.85,2.86,2.86,0,0,0-1,2.32h-7a6.93,6.93,0,0,1,1.4-4.2,9.18,9.18,0,0,1,4-3,14.26,14.26,0,0,1,5.74-1.1,11.45,11.45,0,0,1,7.67,2.42A8.49,8.49,0,0,1,313.28,75V86.31a12.59,12.59,0,0,0,1,5.62v.41Zm-5.77-4.85a6,6,0,0,0,2.85-.69A4.53,4.53,0,0,0,306.28,85v-4.5h-2.6q-5.25,0-5.58,3.63l0,.41a2.81,2.81,0,0,0,.92,2.15A3.58,3.58,0,0,0,301.5,87.49Z" style="fill:#302e53"/><path d="M329.51,87.2a4.58,4.58,0,0,0,3.14-1.06,3.73,3.73,0,0,0,1.25-2.83h6.55A9,9,0,0,1,339,88.18a9.64,9.64,0,0,1-3.9,3.43,12.24,12.24,0,0,1-5.47,1.22,11.35,11.35,0,0,1-8.84-3.57q-3.23-3.56-3.23-9.83V79q0-6,3.21-9.64a11.23,11.23,0,0,1,8.81-3.59,11,11,0,0,1,7.86,2.79,9.89,9.89,0,0,1,3,7.42H333.9a4.79,4.79,0,0,0-1.25-3.31,4.66,4.66,0,0,0-6.87.5c-.83,1.18-1.24,3.11-1.24,5.77v.72q0,4,1.23,5.81A4.27,4.27,0,0,0,329.51,87.2Z" style="fill:#302e53"/><path d="M356.45,92.83a12.81,12.81,0,0,1-9.35-3.53,12.51,12.51,0,0,1-3.61-9.39v-.68a15.65,15.65,0,0,1,1.52-7,11.16,11.16,0,0,1,4.31-4.79,12.17,12.17,0,0,1,6.36-1.67,10.82,10.82,0,0,1,8.44,3.38q3.08,3.38,3.08,9.58v2.85H350.56a6.56,6.56,0,0,0,2,4.11,6.17,6.17,0,0,0,4.31,1.54,7.51,7.51,0,0,0,6.3-2.92l3.43,3.84a10.48,10.48,0,0,1-4.25,3.46A13.92,13.92,0,0,1,356.45,92.83Zm-.79-21.47a4.35,4.35,0,0,0-3.37,1.41,7.36,7.36,0,0,0-1.66,4h9.71v-.55a5.13,5.13,0,0,0-1.26-3.6A4.47,4.47,0,0,0,355.66,71.36Z" style="fill:#302e53"/><path d="M405.08,78H391.17V92.34h-7.24V57.19h22.88v5.87H391.17v9.07h13.91Z" style="fill:#302e53"/><path d="M417.92,92.34h-7V55.26h7Z" style="fill:#302e53"/><path d="M423.62,59.46a3.41,3.41,0,0,1,1.05-2.58,4.51,4.51,0,0,1,5.71,0,3.39,3.39,0,0,1,1.06,2.58,3.46,3.46,0,0,1-1.07,2.61,4.5,4.5,0,0,1-5.68,0A3.46,3.46,0,0,1,423.62,59.46ZM431,92.34h-7V66.22h7Z" style="fill:#302e53"/><path d="M435.76,79.09q0-6,2.86-9.68a9.27,9.27,0,0,1,7.72-3.67A8.12,8.12,0,0,1,453,68.68l.29-2.46h6.33V91.47a11.16,11.16,0,0,1-1.56,6,10,10,0,0,1-4.38,3.86,15.47,15.47,0,0,1-6.61,1.33,14.26,14.26,0,0,1-5.61-1.15,9.82,9.82,0,0,1-4.12-3l3.09-4.25a8.15,8.15,0,0,0,6.32,2.93,6,6,0,0,0,4.32-1.49,5.56,5.56,0,0,0,1.55-4.21V90.1a8.07,8.07,0,0,1-6.35,2.73,9.24,9.24,0,0,1-7.62-3.69q-2.91-3.67-2.91-9.76Zm7,.52a9.53,9.53,0,0,0,1.42,5.57,4.53,4.53,0,0,0,3.91,2,4.86,4.86,0,0,0,4.57-2.39v-11a4.85,4.85,0,0,0-4.52-2.39,4.55,4.55,0,0,0-3.94,2.06C443.22,74.84,442.74,76.88,442.74,79.61Z" style="fill:#302e53"/><path d="M471.81,69.07a8.7,8.7,0,0,1,7-3.33q8.49,0,8.61,9.87V92.34h-7V75.8a4.85,4.85,0,0,0-1-3.31,4.11,4.11,0,0,0-3.21-1.08,4.75,4.75,0,0,0-4.44,2.37V92.34h-7V55.26h7Z" style="fill:#302e53"/><path d="M501,59.8v6.42h4.47v5.12H501v13a3.11,3.11,0,0,0,.56,2.07,2.76,2.76,0,0,0,2.12.63,11.31,11.31,0,0,0,2.05-.17V92.2a14.24,14.24,0,0,1-4.22.63q-7.33,0-7.49-7.42V71.34h-3.81V66.22H494V59.8Z" style="fill:#302e53"/><path d="M271.32,137.25h-7l-13.68-23.13v23.13h-7V102.1h7l13.71,23.17V102.1h7Z" style="fill:#1e2022"/><path d="M288.68,137.73a12.24,12.24,0,0,1-9.08-3.52,12.75,12.75,0,0,1-3.5-9.39v-.68a16.27,16.27,0,0,1,1.47-7,11.07,11.07,0,0,1,4.19-4.78,11.44,11.44,0,0,1,6.17-1.68,10.37,10.37,0,0,1,8.19,3.38q3,3.39,3,9.59v2.85H283a6.57,6.57,0,0,0,2,4.1,5.89,5.89,0,0,0,4.18,1.55,7.25,7.25,0,0,0,6.12-2.92l3.32,3.83a10.18,10.18,0,0,1-4.12,3.47A13.14,13.14,0,0,1,288.68,137.73Zm-.77-21.46a4.15,4.15,0,0,0-3.27,1.41,7.39,7.39,0,0,0-1.61,4h9.42v-.56a5.29,5.29,0,0,0-1.22-3.6A4.28,4.28,0,0,0,287.91,116.27Z" style="fill:#1e2022"/><path d="M325,127.76l3.33-16.63h6.53l-6.46,26.12h-5.67l-4.81-16.44-4.8,16.44h-5.64L301,111.13h6.54l3.3,16.61,4.64-16.61h4.89Z" style="fill:#1e2022"/><path d="M351.93,130a2.28,2.28,0,0,0-1.23-2,13.59,13.59,0,0,0-3.95-1.31q-9-2-9-7.92a7.26,7.26,0,0,1,2.8-5.81,11.06,11.06,0,0,1,7.32-2.33,11.86,11.86,0,0,1,7.72,2.35,7.45,7.45,0,0,1,2.89,6.08h-6.77a3.44,3.44,0,0,0-.94-2.48,3.88,3.88,0,0,0-2.92-1,4,4,0,0,0-2.65.79,2.54,2.54,0,0,0-.94,2,2.16,2.16,0,0,0,1.07,1.87,10.51,10.51,0,0,0,3.59,1.23,29.91,29.91,0,0,1,4.27,1.17q5.36,2,5.36,7a6.87,6.87,0,0,1-3,5.78,12.54,12.54,0,0,1-7.69,2.21,13,13,0,0,1-5.65-1.17,9.56,9.56,0,0,1-3.88-3.21,7.6,7.6,0,0,1-1.41-4.41h6.42a3.67,3.67,0,0,0,1.34,2.85,5.15,5.15,0,0,0,3.32,1,4.76,4.76,0,0,0,2.94-.76A2.38,2.38,0,0,0,351.93,130Z" style="fill:#1e2022"/></g></g></svg>